<svg xmlns="http://www.w3.org/2000/svg" width="19.426" height="19.426" viewBox="0 0 19.426 19.426">
  <g id="add_1_" data-name="add (1)" transform="translate(0)">
    <g id="Group_10458" data-name="Group 10458" transform="translate(0)">
      <g id="Group_10457" data-name="Group 10457">
        <path id="Path_324" data-name="Path 324" d="M9.713,0a9.713,9.713,0,1,0,9.713,9.713A9.724,9.724,0,0,0,9.713,0Zm0,17.922a8.208,8.208,0,1,1,8.208-8.208A8.218,8.218,0,0,1,9.713,17.922Z" fill="#fbe773"/>
      </g>
    </g>
    <g id="Group_10460" data-name="Group 10460" transform="translate(5.199 5.131)">
      <g id="Group_10459" data-name="Group 10459">
        <path id="Path_325" data-name="Path 325" d="M145.3,139h-3.009V135.99a.752.752,0,1,0-1.5,0V139h-3.009a.752.752,0,1,0,0,1.5h3.009v3.01a.752.752,0,0,0,1.5,0V140.5H145.3a.752.752,0,1,0,0-1.5Z" transform="translate(-137.022 -135.238)" fill="#fbe773"/>
      </g>
    </g>
  </g>
</svg>
