<svg xmlns="http://www.w3.org/2000/svg" width="14.236" height="14.642" viewBox="0 0 14.236 14.642">
  <g id="arrow" transform="translate(0 -31.842)">
    <g id="Group_10155" data-name="Group 10155" transform="translate(0 31.842)">
      <path id="Path_50" data-name="Path 50" d="M.855,37.964a.852.852,0,0,1,.176-.016H11.075l-.219-.122a2.086,2.086,0,0,1-.576-.489L7.464,33.96a1.455,1.455,0,0,1-.148-1.619.914.914,0,0,1,1.424-.264,1.091,1.091,0,0,1,.1.105l5.093,6.108a1.4,1.4,0,0,1,0,1.728h0L8.844,46.127a.9.9,0,0,1-1.441,0,1.187,1.187,0,0,1-.087-.12,1.455,1.455,0,0,1,.148-1.619L10.276,41a2.1,2.1,0,0,1,.509-.446l.306-.165h-10A1.116,1.116,0,0,1,.013,39.366,1.214,1.214,0,0,1,.855,37.964Z" transform="translate(0 -31.842)" fill="#474746"/>
    </g>
  </g>
</svg>
