<svg xmlns="http://www.w3.org/2000/svg" width="17.527" height="14.642" viewBox="0 0 17.527 14.642">
  <g id="arrow1" transform="translate(0 -31.842)">
    <g id="Group_10155" data-name="Group 10155" transform="translate(0 31.842)">
      <path id="Path_50" data-name="Path 50" d="M1.053,37.964a1.285,1.285,0,0,1,.217-.016H13.635l-.27-.122a2.509,2.509,0,0,1-.709-.489L9.189,33.96a1.24,1.24,0,0,1-.182-1.619,1.276,1.276,0,0,1,1.753-.264,1.247,1.247,0,0,1,.128.105l6.27,6.108a1.2,1.2,0,0,1,0,1.728h0l-6.27,6.108a1.278,1.278,0,0,1-1.774,0,1.164,1.164,0,0,1,.074-1.738L12.651,41a2.506,2.506,0,0,1,.627-.446l.376-.165H1.339A1.291,1.291,0,0,1,.016,39.366,1.226,1.226,0,0,1,1.053,37.964Z" transform="translate(0 -31.842)" fill="#474746"/>
    </g>
  </g>
</svg>
