<svg xmlns="http://www.w3.org/2000/svg" width="16.205" height="14.642" viewBox="0 0 16.205 14.642">
  <g id="arrow2" transform="translate(0 -31.842)">
    <g id="Group_10155" data-name="Group 10155" transform="translate(0 31.842)">
      <path id="Path_50" data-name="Path 50" d="M.974,37.964a1.1,1.1,0,0,1,.2-.016H12.607l-.249-.122a2.324,2.324,0,0,1-.655-.489L8.5,33.96a1.315,1.315,0,0,1-.168-1.619,1.122,1.122,0,0,1,1.621-.264,1.177,1.177,0,0,1,.119.105l5.8,6.108a1.268,1.268,0,0,1,0,1.728h0l-5.8,6.108a1.118,1.118,0,0,1-1.64,0,1.208,1.208,0,0,1-.1-.12A1.315,1.315,0,0,1,8.5,44.386L11.7,41a2.329,2.329,0,0,1,.58-.446l.348-.165H1.238a1.227,1.227,0,0,1-.264-2.428Z" transform="translate(0 -31.842)" fill="#474746"/>
    </g>
  </g>
</svg>
