<svg xmlns="http://www.w3.org/2000/svg" width="21.188" height="13.243" viewBox="0 0 21.188 13.243">
  <g id="dinner" transform="translate(0 -96)">
    <g id="Group_10491" data-name="Group 10491" transform="translate(0 106.594)">
      <g id="Group_10490" data-name="Group 10490" transform="translate(0 0)">
        <path id="Path_349" data-name="Path 349" d="M21.123,352.209a.444.444,0,0,0-.376-.209H.442a.441.441,0,0,0-.395.638,3.614,3.614,0,0,0,3.252,2.01H17.89a3.619,3.619,0,0,0,3.252-2.009A.446.446,0,0,0,21.123,352.209Z" transform="translate(0 -352)" fill="#474746"/>
      </g>
    </g>
    <g id="Group_10493" data-name="Group 10493" transform="translate(1.82 96)">
      <g id="Group_10492" data-name="Group 10492">
        <path id="Path_350" data-name="Path 350" d="M53.951,97.857a1.324,1.324,0,1,0-2.421,0,8.808,8.808,0,0,0-7.564,7.854H61.514A8.811,8.811,0,0,0,53.951,97.857Zm-1.623,2.556a6.164,6.164,0,0,0-5.416,4.107.442.442,0,0,1-.417.295.448.448,0,0,1-.147-.025.443.443,0,0,1-.27-.563,7.044,7.044,0,0,1,6.191-4.695.448.448,0,0,1,.47.411A.441.441,0,0,1,52.328,100.413Z" transform="translate(-43.966 -96)" fill="#474746"/>
      </g>
    </g>
  </g>
</svg>
