<svg id="distance_1_" data-name="distance (1)" xmlns="http://www.w3.org/2000/svg" width="13.798" height="13.798" viewBox="0 0 13.798 13.798">
  <g id="Group_10140" data-name="Group 10140">
    <g id="Group_10139" data-name="Group 10139">
      <path id="Path_42" data-name="Path 42" d="M343.634,0a2.3,2.3,0,0,0-2.3,2.3c0,1.1,1.63,3.326,2.011,3.833,0,.164,0,.324,0,.472a.288.288,0,0,0,.28.3h.008a.288.288,0,0,0,.287-.28c0-.151,0-.317,0-.485.379-.5,2.013-2.734,2.013-3.835A2.3,2.3,0,0,0,343.634,0Zm0,2.875a.575.575,0,1,1,.575-.575A.576.576,0,0,1,343.634,2.875Z" transform="translate(-332.135)" fill="#3c3c4b"/>
      <path id="Path_43" data-name="Path 43" d="M293.15,306.061a2.335,2.335,0,0,0-.9,1.064.287.287,0,1,0,.518.249,1.718,1.718,0,0,1,.661-.814.287.287,0,1,0-.284-.5Z" transform="translate(-284.351 -297.776)" fill="#3c3c4b"/>
      <path id="Path_44" data-name="Path 44" d="M186.11,460.03a3.148,3.148,0,0,1-1,.526.288.288,0,0,0,.178.547,3.763,3.763,0,0,0,1.18-.622.288.288,0,1,0-.357-.451Z" transform="translate(-179.927 -447.572)" fill="#3c3c4b"/>
      <path id="Path_45" data-name="Path 45" d="M256.3,383.726a.287.287,0,0,0-.372.164,6.722,6.722,0,0,1-.507,1.077.288.288,0,0,0,.491.3,7.281,7.281,0,0,0,.553-1.169A.288.288,0,0,0,256.3,383.726Z" transform="translate(-248.501 -373.366)" fill="#3c3c4b"/>
      <path id="Path_46" data-name="Path 46" d="M367.281,279.246a.288.288,0,0,0-.4.077c-.095.14-.288.332-.874.385a.287.287,0,0,0,.026.574h.026a1.63,1.63,0,0,0,1.3-.635A.287.287,0,0,0,367.281,279.246Z" transform="translate(-355.89 -271.673)" fill="#3c3c4b"/>
      <path id="Path_47" data-name="Path 47" d="M4.131,179.294c.907-.967,2.768-3.192,2.768-5.178a3.413,3.413,0,0,0-3.449-3.449A3.413,3.413,0,0,0,0,174.116c0,2.55,3.074,5.5,3.246,5.664h0l.005.005a.271.271,0,0,0,.04.025.281.281,0,0,0,.05.031.287.287,0,0,0,.108.022q.314,0,.6-.022a.287.287,0,0,0,.265-.308A.282.282,0,0,0,4.131,179.294Zm-.681-3.453a1.725,1.725,0,1,1,1.725-1.725A1.727,1.727,0,0,1,3.449,175.841Z" transform="translate(0 -166.068)" fill="#3c3c4b"/>
    </g>
  </g>
</svg>
