<svg xmlns="http://www.w3.org/2000/svg" width="19.051" height="15.065" viewBox="0 0 19.051 15.065">
  <g id="folder_2_" data-name="folder (2)" transform="translate(0 -42.679)">
    <g id="Group_10487" data-name="Group 10487" transform="translate(0 44.67)">
      <g id="Group_10486" data-name="Group 10486" transform="translate(0 0)">
        <path id="Path_347" data-name="Path 347" d="M15.5,87.028H8.629L7.262,85.4a.234.234,0,0,0-.187-.084H1.53A1.541,1.541,0,0,0,0,86.86v9.994a1.541,1.541,0,0,0,1.539,1.539H15.5a1.541,1.541,0,0,0,1.539-1.539V88.567A1.541,1.541,0,0,0,15.5,87.028Z" transform="translate(0 -85.319)" fill="#474746"/>
      </g>
    </g>
    <g id="Group_10489" data-name="Group 10489" transform="translate(2.026 42.679)">
      <g id="Group_10488" data-name="Group 10488">
        <path id="Path_348" data-name="Path 348" d="M58.895,44.388H52.02l-1.367-1.625a.234.234,0,0,0-.187-.084H44.922a1.539,1.539,0,0,0-1.522,1.33h5.056a.9.9,0,0,1,.687.319l1.167,1.388h6.565a2.2,2.2,0,0,1,2.2,2.2v7.822a1.539,1.539,0,0,0,1.348-1.526V45.925A1.541,1.541,0,0,0,58.895,44.388Z" transform="translate(-43.4 -42.679)" fill="#474746"/>
      </g>
    </g>
  </g>
</svg>
