<svg xmlns="http://www.w3.org/2000/svg" width="21.156" height="21.156" viewBox="0 0 21.156 21.156">
  <g id="Group_34855" data-name="Group 34855" transform="translate(-381.869 -362.5)">
    <path id="Path_1298" data-name="Path 1298" d="M480.845,434.877H468.9l9.378-1.977.929-.2.2-.042a.9.9,0,0,1,1.063.668Z" transform="translate(-83.151 -67.018)" fill="#474746"/>
    <path id="Path_1299" data-name="Path 1299" d="M442.692,365.059l-10.54,2.223,8.095-4.661a.9.9,0,0,1,1.233.332Z" transform="translate(-48.043 0)" fill="#474746"/>
    <path id="Path_1300" data-name="Path 1300" d="M397.158,513.7a1.807,1.807,0,0,1-1.805-1.805v-2.708a1.807,1.807,0,0,1,1.805-1.805h4.119v-3.385a.9.9,0,0,0-.9-.9h-17.6a.9.9,0,0,0-.9.9v13.089a.9.9,0,0,0,.9.9h17.6a.9.9,0,0,0,.9-.9V513.7Z" transform="translate(0 -134.329)" fill="#474746"/>
    <path id="Path_1301" data-name="Path 1301" d="M710.733,619.628h-4.965a.9.9,0,0,0-.9.9v2.708a.9.9,0,0,0,.9.9h4.965a.9.9,0,0,0,.9-.9v-2.708A.9.9,0,0,0,710.733,619.628Zm-3.8,3.272a1.016,1.016,0,1,1,1.016-1.016A1.015,1.015,0,0,1,706.928,622.9Z" transform="translate(-308.61 -245.675)" fill="#474746"/>
  </g>
</svg>
