<svg xmlns="http://www.w3.org/2000/svg" width="23.157" height="23.157" viewBox="0 0 23.157 23.157">
  <g id="Group_10501" data-name="Group 10501" transform="translate(-671.059 -99.095)">
    <path id="Path_1295" data-name="Path 1295" d="M682.637,99.1a11.578,11.578,0,1,1-11.578,11.578A11.578,11.578,0,0,1,682.637,99.1" transform="translate(0)" fill="#474746" fill-rule="evenodd"/>
    <path id="Path_1296" data-name="Path 1296" d="M694.151,115.688a9.558,9.558,0,0,0-4.587,2.966,19.38,19.38,0,0,0,2.248.862,11.613,11.613,0,0,1,.79-1.812,7.543,7.543,0,0,1,1.549-2.016m0,18.341a7.542,7.542,0,0,1-1.549-2.016,11.611,11.611,0,0,1-.79-1.812,19.376,19.376,0,0,0-2.248.862A9.558,9.558,0,0,0,694.151,134.03Zm9.993-3.04a20.956,20.956,0,0,0-2.3-.83,11.653,11.653,0,0,1-.8,1.854,7.543,7.543,0,0,1-1.549,2.016A9.558,9.558,0,0,0,704.144,130.99Zm-4.649-15.3a7.543,7.543,0,0,1,1.549,2.016,11.651,11.651,0,0,1,.8,1.854,20.972,20.972,0,0,0,2.3-.83A9.559,9.559,0,0,0,699.5,115.688Zm-3.173,4.6V115.63a4.727,4.727,0,0,0-2.845,2.552,10.553,10.553,0,0,0-.7,1.606A16.777,16.777,0,0,0,696.323,120.291Zm-3.548,9.639a10.552,10.552,0,0,0,.7,1.606,4.728,4.728,0,0,0,2.845,2.552v-4.661A16.775,16.775,0,0,0,692.774,129.93Zm4.549-.506v4.664a4.728,4.728,0,0,0,2.845-2.552,10.577,10.577,0,0,0,.714-1.635A17.379,17.379,0,0,0,697.323,129.424Zm3.558-9.608a10.577,10.577,0,0,0-.714-1.635,4.727,4.727,0,0,0-2.845-2.552v4.664A17.379,17.379,0,0,0,700.882,119.817ZM688.94,130.25a20.492,20.492,0,0,1,2.582-1.006,17.031,17.031,0,0,1-.546-4h-3.7A9.5,9.5,0,0,0,688.94,130.25Zm7.383-5.007h-4.345a16.053,16.053,0,0,0,.506,3.729,17.766,17.766,0,0,1,3.84-.546Zm4.848,3.7a16.08,16.08,0,0,0,.5-3.7h-4.345v3.181A18.348,18.348,0,0,1,701.17,128.943Zm5.195-3.7h-3.7a17.057,17.057,0,0,1-.535,3.96,22.2,22.2,0,0,1,2.626.967A9.5,9.5,0,0,0,706.365,125.243Zm-4.231-4.728a16.963,16.963,0,0,1,.529,3.727h3.69a9.5,9.5,0,0,0-1.593-4.694A22.18,22.18,0,0,1,702.134,120.515Zm-4.811,3.727h4.339a15.968,15.968,0,0,0-.492-3.467,18.352,18.352,0,0,1-3.847.52Zm-4.841-3.5a15.954,15.954,0,0,0-.5,3.5h4.339v-2.949A17.77,17.77,0,0,1,692.483,120.746Zm-3.543-1.278a9.5,9.5,0,0,0-1.647,4.774h3.689a16.935,16.935,0,0,1,.54-3.768A20.506,20.506,0,0,1,688.94,119.468Zm7.883-5.129a10.52,10.52,0,1,1-10.52,10.52A10.52,10.52,0,0,1,696.823,114.339Z" transform="translate(-14.186 -14.186)" fill="#fff" fill-rule="evenodd"/>
  </g>
</svg>
