<svg id="Group_10153" data-name="Group 10153" xmlns="http://www.w3.org/2000/svg" width="25.9" height="25.9" viewBox="0 0 25.9 25.9">
  <path id="Path_49" data-name="Path 49" d="M22.1,3.791A12.95,12.95,0,1,0,25.9,12.947,12.95,12.95,0,0,0,22.1,3.791ZM19.612,18.039l0,0v0l-.656.652a3.453,3.453,0,0,1-3.259.932,11.474,11.474,0,0,1-3.332-1.494,15.4,15.4,0,0,1-2.629-2.119,15.515,15.515,0,0,1-1.964-2.383,12.085,12.085,0,0,1-1.476-2.987,3.453,3.453,0,0,1,.863-3.527l.768-.768a.548.548,0,0,1,.775,0l0,0,2.426,2.426a.548.548,0,0,1,0,.775l0,0L9.7,10.97a1.161,1.161,0,0,0-.121,1.511,16.659,16.659,0,0,0,1.705,1.99,16.558,16.558,0,0,0,2.245,1.886,1.17,1.17,0,0,0,1.494-.129l1.377-1.4a.548.548,0,0,1,.775,0l0,0,2.43,2.435A.548.548,0,0,1,19.612,18.039Z" transform="translate(0 0)" fill="#fbe773"/>
</svg>
