<svg xmlns="http://www.w3.org/2000/svg" width="18.506" height="18.506" viewBox="0 0 18.506 18.506">
  <g id="Group_10498" data-name="Group 10498" transform="translate(-746.399 -178.912)">
    <g id="Group_10497" data-name="Group 10497" transform="translate(746.399 178.912)">
      <path id="Path_1286" data-name="Path 1286" d="M772.64,157.273a1.085,1.085,0,1,0,1.085,1.085A1.085,1.085,0,0,0,772.64,157.273Z" transform="translate(-758.488 -153.969)" fill="#faf8ff"/>
      <path id="Path_1287" data-name="Path 1287" d="M760.142,159.952a4.557,4.557,0,1,0,4.558,4.557A4.562,4.562,0,0,0,760.142,159.952Zm0,7.476a2.919,2.919,0,1,1,2.919-2.919A2.923,2.923,0,0,1,760.142,167.428Z" transform="translate(-750.813 -155.256)" fill="#faf8ff"/>
      <path id="Path_1288" data-name="Path 1288" d="M759.346,169.418h-7.388a5.565,5.565,0,0,1-5.558-5.559v-7.389a5.565,5.565,0,0,1,5.558-5.559h7.388a5.565,5.565,0,0,1,5.559,5.559v7.389A5.565,5.565,0,0,1,759.346,169.418Zm-7.388-16.765a3.822,3.822,0,0,0-3.818,3.817v7.389a3.822,3.822,0,0,0,3.818,3.818h7.388a3.822,3.822,0,0,0,3.818-3.818v-7.389a3.822,3.822,0,0,0-3.818-3.817Z" transform="translate(-746.399 -150.912)" fill="#faf8ff"/>
    </g>
  </g>
</svg>
