<svg xmlns="http://www.w3.org/2000/svg" width="27" height="27" viewBox="0 0 27 27">
  <g id="Group_34860" data-name="Group 34860" transform="translate(-342 -205)">
    <rect id="Rectangle_122" data-name="Rectangle 122" width="27" height="27" rx="5" transform="translate(342 205)" fill="#474746"/>
    <g id="photo" transform="translate(347 210)">
      <g id="Group_10454" data-name="Group 10454" transform="translate(0 0)">
        <g id="Group_10453" data-name="Group 10453" transform="translate(0 0)">
          <circle id="Ellipse_3" data-name="Ellipse 3" cx="1.298" cy="1.298" r="1.298" transform="translate(5.824 4.129)" fill="#fafafa"/>
          <path id="Path_322" data-name="Path 322" d="M17.779,34.206a4,4,0,0,0-2.236-1.064v-6.6a2.6,2.6,0,0,0-.739-1.8A2.519,2.519,0,0,0,13,24H2.542a2.6,2.6,0,0,0-1.8.739A2.519,2.519,0,0,0,0,26.542V37.307a2.6,2.6,0,0,0,.739,1.8,2.519,2.519,0,0,0,1.8.739H12.658a3.815,3.815,0,0,0,5.121-5.644ZM.956,26.542a1.509,1.509,0,0,1,.469-1.1,1.582,1.582,0,0,1,1.118-.469H13a1.6,1.6,0,0,1,1.587,1.587v5.626l-2.669-2.669a.484.484,0,0,0-.685,0L7.213,33.557,4.49,30.816a.484.484,0,0,0-.685,0L.956,33.7ZM2.524,38.93v-.036a1.582,1.582,0,0,1-1.118-.469,1.646,1.646,0,0,1-.451-1.118V35.071l3.192-3.21L6.87,34.584a.5.5,0,0,0,.685,0l4.021-4.039L14.209,33.2l-.162.054a1.674,1.674,0,0,0-.234.072c-.072.018-.144.054-.216.072a.54.54,0,0,0-.144.072,1.676,1.676,0,0,0-.18.09l-.27.162c-.054.036-.09.054-.144.09-.036.018-.054.036-.09.054a2.176,2.176,0,0,0-.433.379,3.814,3.814,0,0,0-1.118,2.7,3.964,3.964,0,0,0,.09.793c.018.072.036.126.054.2.054.18.108.361.18.541V38.5a3.307,3.307,0,0,0,.234.433Zm14.551,0a2.852,2.852,0,0,1-3.985.036c-.072-.072-.144-.162-.216-.234-.054-.054-.108-.126-.162-.18a1.712,1.712,0,0,1-.18-.307c-.036-.072-.072-.126-.108-.2a1.523,1.523,0,0,1-.09-.307c-.018-.072-.054-.162-.072-.234a2.985,2.985,0,0,1-.054-.577,2.894,2.894,0,0,1,.829-2.019,2.788,2.788,0,0,1,2.019-.829,2.894,2.894,0,0,1,2.02.829,2.818,2.818,0,0,1,.829,2.019A2.884,2.884,0,0,1,17.076,38.93Z" transform="translate(0 -24)" fill="#fafafa"/>
          <path id="Path_323" data-name="Path 323" d="M300.538,264.544a.629.629,0,0,0-.162-.108.527.527,0,0,0-.162-.036h-.036a.526.526,0,0,0-.162.036.426.426,0,0,0-.162.108l-1.118,1.118a.485.485,0,0,0,.685.685l.288-.289v1.983a.487.487,0,0,0,.974,0v-1.983l.288.289a.485.485,0,1,0,.685-.685Z" transform="translate(-285.14 -253.563)" fill="#fafafa"/>
        </g>
      </g>
    </g>
  </g>
</svg>
