<svg xmlns="http://www.w3.org/2000/svg" width="53.372" height="47.261" viewBox="0 0 53.372 47.261">
  <g id="Group_10454" data-name="Group 10454" transform="translate(0 0)">
    <g id="Group_10453" data-name="Group 10453" transform="translate(0 0)">
      <circle id="Ellipse_3" data-name="Ellipse 3" cx="3.667" cy="3.667" r="3.667" transform="translate(16.45 11.662)" fill="#f5f5f5"/>
      <path id="Path_322" data-name="Path 322" d="M50.215,52.825a11.292,11.292,0,0,0-6.315-3V31.181a7.332,7.332,0,0,0-2.088-5.093A7.116,7.116,0,0,0,36.719,24H7.181a7.332,7.332,0,0,0-5.093,2.088A7.116,7.116,0,0,0,0,31.181v30.4a7.332,7.332,0,0,0,2.088,5.093,7.116,7.116,0,0,0,5.093,2.088h28.57a10.775,10.775,0,0,0,14.463-15.94ZM2.7,31.181a4.263,4.263,0,0,1,1.324-3.107A4.469,4.469,0,0,1,7.181,26.75H36.719A4.521,4.521,0,0,1,41.2,31.232V47.121l-7.537-7.537a1.367,1.367,0,0,0-1.935,0L20.371,50.992l-7.69-7.741a1.368,1.368,0,0,0-1.935,0L2.7,51.4ZM7.13,66.168v-.1a4.469,4.469,0,0,1-3.158-1.324A4.648,4.648,0,0,1,2.7,61.585V55.27L11.713,46.2l7.69,7.69a1.416,1.416,0,0,0,1.935,0L32.7,42.487l7.435,7.486-.458.153a4.73,4.73,0,0,0-.662.2c-.2.051-.407.153-.611.2a1.525,1.525,0,0,0-.407.2,4.733,4.733,0,0,0-.509.255l-.764.458c-.153.1-.255.153-.407.255-.1.051-.153.1-.255.153a6.144,6.144,0,0,0-1.222,1.069,10.774,10.774,0,0,0-3.158,7.639,11.2,11.2,0,0,0,.255,2.241c.051.2.1.356.153.56.153.509.306,1.019.509,1.528v.051a9.341,9.341,0,0,0,.662,1.222Zm41.1,0a8.056,8.056,0,0,1-11.255.1c-.2-.2-.407-.458-.611-.662-.153-.153-.306-.356-.458-.509a4.836,4.836,0,0,1-.509-.866c-.1-.2-.2-.356-.306-.56a4.3,4.3,0,0,1-.255-.866c-.051-.2-.153-.458-.2-.662a8.43,8.43,0,0,1-.153-1.63,8.174,8.174,0,0,1,2.343-5.7,7.874,7.874,0,0,1,5.7-2.343,8.174,8.174,0,0,1,5.7,2.343,7.96,7.96,0,0,1,2.343,5.7A8.145,8.145,0,0,1,48.229,66.168Z" transform="translate(0 -24)" fill="#f5f5f5"/>
      <path id="Path_323" data-name="Path 323" d="M304.075,264.807a1.778,1.778,0,0,0-.458-.306,1.487,1.487,0,0,0-.458-.1h-.1a1.487,1.487,0,0,0-.458.1,1.2,1.2,0,0,0-.458.306l-3.158,3.158a1.368,1.368,0,1,0,1.935,1.935l.815-.815v5.6a1.375,1.375,0,0,0,2.75,0v-5.6l.815.815a1.368,1.368,0,1,0,1.935-1.935Z" transform="translate(-260.582 -233.792)" fill="#f5f5f5"/>
    </g>
  </g>
</svg>
