<svg xmlns="http://www.w3.org/2000/svg" width="20.632" height="23.475" viewBox="0 0 20.632 23.475">
  <g id="Group_2" data-name="Group 2" transform="translate(-247 -63)">
    <g id="location_2_" data-name="location (2)" transform="translate(216 63)">
      <g id="Group_7" data-name="Group 7" transform="translate(33.751)">
        <g id="Group_6" data-name="Group 6" transform="translate(0)">
          <path id="Path_6" data-name="Path 6" d="M98.565,0a7.562,7.562,0,0,0-6.149,11.967l5.57,8.692a.688.688,0,0,0,1.158,0l5.595-8.722A7.565,7.565,0,0,0,98.565,0Zm0,11A3.439,3.439,0,1,1,102,7.565,3.443,3.443,0,0,1,98.565,11Z" transform="translate(-91)" fill="#474746"/>
        </g>
      </g>
      <g id="Group_9" data-name="Group 9" transform="translate(31 15.804)">
        <g id="Group_8" data-name="Group 8" transform="translate(0)">
          <path id="Path_7" data-name="Path 7" d="M46.693,344.7l-3.463,5.414a2.274,2.274,0,0,1-3.828,0L35.933,344.7c-3.052.706-4.933,2-4.933,3.543,0,2.68,5.315,4.126,10.316,4.126s10.316-1.446,10.316-4.126C51.632,346.694,49.748,345.4,46.693,344.7Z" transform="translate(-31 -344.695)" fill="#474746"/>
        </g>
      </g>
    </g>
  </g>
</svg>
