<svg id="Group_34863" data-name="Group 34863" xmlns="http://www.w3.org/2000/svg" width="30.031" height="30.031" viewBox="0 0 30.031 30.031">
  <path id="Path_1309" data-name="Path 1309" d="M9.129,0H20.9a9.129,9.129,0,0,1,9.129,9.129V20.9A9.129,9.129,0,0,1,20.9,30.031H9.129A9.129,9.129,0,0,1,0,20.9V9.129A9.129,9.129,0,0,1,9.129,0Z" transform="translate(0 0)" fill="#474746"/>
  <g id="Group_34862" data-name="Group 34862" transform="translate(6.32 6.35)">
    <g id="Group_34861" data-name="Group 34861">
      <g id="Group_34860" data-name="Group 34860">
        <path id="Path_1304" data-name="Path 1304" d="M833.282,162.048a1.02,1.02,0,1,0,1.019,1.02A1.02,1.02,0,0,0,833.282,162.048Z" transform="translate(-819.982 -158.943)" fill="#fff"/>
        <path id="Path_1305" data-name="Path 1305" d="M827.182,163.618a4.283,4.283,0,1,0,4.283,4.283A4.288,4.288,0,0,0,827.182,163.618Zm0,7.027a2.744,2.744,0,1,1,2.744-2.744A2.747,2.747,0,0,1,827.182,170.645Z" transform="translate(-818.416 -159.206)" fill="#fff"/>
        <path id="Path_1306" data-name="Path 1306" d="M829.682,175.71h-6.944a5.23,5.23,0,0,1-5.223-5.224v-6.944a5.229,5.229,0,0,1,5.223-5.223h6.944a5.229,5.229,0,0,1,5.223,5.223v6.944A5.23,5.23,0,0,1,829.682,175.71Zm-6.944-15.755a3.591,3.591,0,0,0-3.588,3.587v6.944a3.592,3.592,0,0,0,3.588,3.588h6.944a3.592,3.592,0,0,0,3.587-3.588v-6.944a3.591,3.591,0,0,0-3.587-3.587Z" transform="translate(-817.515 -158.319)" fill="#fff"/>
      </g>
    </g>
  </g>
</svg>
