<svg id="Group_34865" data-name="Group 34865" xmlns="http://www.w3.org/2000/svg" width="30.031" height="30.031" viewBox="0 0 30.031 30.031">
  <rect id="Rectangle_125" data-name="Rectangle 125" width="30.031" height="30.031" rx="9.128" fill="#474746"/>
  <g id="Group_34864" data-name="Group 34864" transform="translate(7.001 6.415)">
    <path id="Path_1307" data-name="Path 1307" d="M867.454,175.255l1.237-4.614a8.539,8.539,0,1,1,3.4,3.372Zm4.869-2.971.292.174a6.936,6.936,0,1,0-2.371-2.351l.179.295-.69,2.575Z" transform="translate(-867.454 -158.005)" fill="#fff"/>
    <path id="Path_1308" data-name="Path 1308" d="M880.229,168.64a1.431,1.431,0,0,0-1.22-.275c-.317.13-.52.625-.724.879a.3.3,0,0,1-.393.085,5.524,5.524,0,0,1-2.758-2.362.338.338,0,0,1,.042-.462,1.87,1.87,0,0,0,.5-.814,1.786,1.786,0,0,0-.224-.963,2.282,2.282,0,0,0-.711-1.071.973.973,0,0,0-1.057.157,2.148,2.148,0,0,0-.744,1.7,2.4,2.4,0,0,0,.067.54,4.478,4.478,0,0,0,.518,1.193,9.454,9.454,0,0,0,.54.822,8.365,8.365,0,0,0,2.345,2.177,7.154,7.154,0,0,0,1.462.7,3.253,3.253,0,0,0,1.7.269,2.063,2.063,0,0,0,1.544-1.148,1,1,0,0,0,.072-.586C881.1,169.075,880.556,168.835,880.229,168.64Z" transform="translate(-868.372 -158.935)" fill="#fff" fill-rule="evenodd"/>
  </g>
</svg>
