<svg xmlns="http://www.w3.org/2000/svg" width="26" height="26" viewBox="0 0 26 26">
  <g id="Group_10152" data-name="Group 10152" transform="translate(-233.297 -53.149)">
    <path id="Subtraction_1" data-name="Subtraction 1" d="M13,0A13,13,0,1,1,0,13,13,13,0,0,1,13,0Z" transform="translate(233.298 53.149)" fill="#ffe969"/>
    <g id="Group_10499" data-name="Group 10499" transform="translate(-49.063 -310.853)">
      <path id="Path_1289" data-name="Path 1289" d="M369.772,385.528c-3.038-3.7-5.5-6.987-5.5-10.025a5.5,5.5,0,1,1,11,0c0,3.038-2.463,6.323-5.5,10.025Z" transform="translate(-74.91 0)" fill="#474746" fill-rule="evenodd"/>
      <path id="Path_1290" data-name="Path 1290" d="M551.981,560.632a2.92,2.92,0,1,0-2.92-2.92,2.926,2.926,0,0,0,2.92,2.92Z" transform="translate(-257.119 -182.209)" fill="#ffe969" fill-rule="evenodd"/>
      <path id="Path_1291" data-name="Path 1291" d="M289.449,1303.278Z" transform="translate(0.017 -917.805)" fill="#474746" fill-rule="evenodd"/>
    </g>
  </g>
</svg>
