<svg id="Group_10158" data-name="Group 10158" xmlns="http://www.w3.org/2000/svg" width="33.232" height="28.024" viewBox="0 0 33.232 28.024">
  <g id="Group_10157" data-name="Group 10157" transform="translate(0 5.616)">
    <path id="Path_53" data-name="Path 53" d="M-48.942,43.615a2.719,2.719,0,0,1,2.72,2.72,2.719,2.719,0,0,1-2.72,2.72,2.719,2.719,0,0,1-2.72-2.72A2.719,2.719,0,0,1-48.942,43.615Zm0,3.822a1.1,1.1,0,0,0,1.1-1.1,1.1,1.1,0,0,0-1.1-1.1,1.1,1.1,0,0,0-1.1,1.1A1.1,1.1,0,0,0-48.942,47.437Z" transform="translate(56.685 -26.647)" fill="#414042"/>
    <path id="Path_54" data-name="Path 54" d="M-73.149,43.615a2.719,2.719,0,0,1,2.72,2.72,2.719,2.719,0,0,1-2.72,2.72,2.719,2.719,0,0,1-2.72-2.72A2.719,2.719,0,0,1-73.149,43.615Zm0,3.822a1.1,1.1,0,0,0,1.1-1.1,1.1,1.1,0,0,0-1.1-1.1,1.1,1.1,0,0,0-1.1,1.1A1.1,1.1,0,0,0-73.149,47.437Z" transform="translate(99.964 -26.647)" fill="#414042"/>
    <path id="Path_55" data-name="Path 55" d="M-77.08,33.753c.9-.34,1.286-.553,1.286-2.08V29.281c0-4.159.84-5.857,2.974-6.586a11.879,11.879,0,0,1,2.994-.491,41.907,41.907,0,0,1,9.516.31c.085,1.27.139,2.665.139,4.281,0,.939,0,1.55,0,2.167-1.364.1-2.4.693-2.4,3.154,0,2.744,1.292,6.77,2.885,6.77s2.885-4.025,2.885-6.771c0-2.461-1.039-3.056-2.4-3.153,0-.617,0-1.228,0-2.167,0-1.52.046-2.842.121-4.05a17.22,17.22,0,0,1,5.344,2.032c5.074,3.079,6.475,8.573,6.416,15.327-.016,1.846-.288,1.989-1.989,1.989H-50.4a3.226,3.226,0,0,0,.016-.328A3.364,3.364,0,0,0-53.748,38.4a3.364,3.364,0,0,0-3.363,3.364c0,.11.006.22.016.328H-65.66c0-.156,0-.313,0-.471,0-1.031,0-1.692,0-2.37a2.363,2.363,0,0,0,1.837-2.3V29.838a.37.37,0,0,0-.739,0v5.074h-.585V29.839a.37.37,0,0,0-.739,0v5.074h-.585V29.838a.37.37,0,0,0-.739,0v5.073h-.584V29.839a.37.37,0,0,0-.739,0v7.118a2.364,2.364,0,0,0,1.837,2.3c0,.678,0,1.338,0,2.369,0,.158,0,.316,0,.471h-2.78c.01-.108.016-.217.016-.328A3.364,3.364,0,0,0-72.82,38.4a3.364,3.364,0,0,0-3.364,3.364,3.225,3.225,0,0,0,.017.328h-3.147a1.252,1.252,0,0,1-1.248-1.248V38.42C-80.562,36.123-80.064,34.878-77.08,33.753Zm2.192-3.244a.849.849,0,0,0,.2.54l.816-.983-.591-.489a.3.3,0,0,1-.039-.425.3.3,0,0,1,.423-.039l1.263,1.048.289.241a.3.3,0,0,1,.04.423.3.3,0,0,1-.329.093.3.3,0,0,1-.095-.053l-.591-.491-.787.948a.854.854,0,0,0,.259.04h2.449a.857.857,0,0,0,.855-.854V24.581a.86.86,0,0,0-.855-.854,3.637,3.637,0,0,0-1.235.179,2.366,2.366,0,0,0-1.275,1.053,8.227,8.227,0,0,0-.793,4.113Z" transform="translate(80.562 -22.078)" fill="#414042"/>
  </g>
  <path id="Path_56" data-name="Path 56" d="M-60.379,15.91a3.3,3.3,0,0,1,3,2.132c.236.572.674.091,1.333.091v0a2.056,2.056,0,0,1,1.937,2.156h0c0,.043,0,.087,0,.131h.91c0-.044,0-.087,0-.132h0a2.991,2.991,0,0,0-2.849-3.111v0l-.685.092a4.006,4.006,0,0,0-6.008-1.52,2.723,2.723,0,0,0-3.789,1.189l-.86.045a3.331,3.331,0,0,0-2.692-1.427v0a3.418,3.418,0,0,0-3.106,2.157,3,3,0,0,0-2.458,2.706h.918a2.015,2.015,0,0,1,1.866-1.776.457.457,0,0,0,.42-.318h0a2.549,2.549,0,0,1,2.36-1.813h0a2.466,2.466,0,0,1,2.115,1.271.443.443,0,0,0,.536.2h0c.889-.324,1.352.277,1.586-.34a1.856,1.856,0,0,1,2.866-.928C-62.4,17.154-62.152,15.91-60.379,15.91Z" transform="translate(82.554 -14.95)" fill="#414042"/>
</svg>
