<svg id="Group_10151" data-name="Group 10151" xmlns="http://www.w3.org/2000/svg" width="22.513" height="22.597" viewBox="0 0 22.513 22.597">
  <g id="loupe_2_" data-name="loupe (2)" transform="translate(0)">
    <g id="Group_10150" data-name="Group 10150">
      <path id="Path_48" data-name="Path 48" d="M22.712,17.807l-3.719-3.719A10.26,10.26,0,0,0,20.12,9.58a9.58,9.58,0,1,0-9.58,9.58,10.26,10.26,0,0,0,4.508-1.127l3.719,3.719a2.724,2.724,0,0,0,3.945,0A2.937,2.937,0,0,0,22.712,17.807Zm-12.172-.9A7.326,7.326,0,1,1,17.866,9.58,7.311,7.311,0,0,1,10.54,16.906Z" transform="translate(-0.96)" fill="#474746"/>
    </g>
  </g>
</svg>
