<svg xmlns="http://www.w3.org/2000/svg" width="20.762" height="20.764" viewBox="0 0 20.762 20.764">
  <path id="home_3_" data-name="home (3)" d="M20.2,9.031h0L11.732.56a1.911,1.911,0,0,0-2.7,0L.563,9.025l-.009.009A1.911,1.911,0,0,0,1.827,12.29l.059,0h.338v6.233a2.24,2.24,0,0,0,2.237,2.237H7.775a.608.608,0,0,0,.608-.608V15.268A1.022,1.022,0,0,1,9.4,14.247h1.955a1.022,1.022,0,0,1,1.021,1.021v4.887a.608.608,0,0,0,.608.608H16.3a2.24,2.24,0,0,0,2.237-2.237V12.293h.313A1.912,1.912,0,0,0,20.2,9.031Zm0,0" transform="translate(0 0.001)" fill="#474746"/>
</svg>
