<svg xmlns="http://www.w3.org/2000/svg" width="22.617" height="24.132" viewBox="0 0 22.617 24.132">
  <path id="Path_1297" data-name="Path 1297" d="M53.426,54.128H66.587A1.412,1.412,0,0,1,68,55.537V59.9h-1.45V55.578H55.325l6.029,3.662a1.542,1.542,0,0,1,.576.7,2.165,2.165,0,0,1,.182.845V71.764h4.434V67.446H68V71.8a1.411,1.411,0,0,1-1.409,1.409H62.112v3.842a1.412,1.412,0,0,1-.188.732.989.989,0,0,1-.308.322.906.906,0,0,1-.5.15.978.978,0,0,1-.511-.151l-7.831-4.757a1.542,1.542,0,0,1-.577-.7,2.17,2.17,0,0,1-.182-.845V55.537A1.414,1.414,0,0,1,52.2,54.8a1.024,1.024,0,0,1,.218-.256l.007-.007a1.4,1.4,0,0,1,1-.414Zm9.916,11.8H69.6v2.259l5.034-4.518L69.6,59.153v2.259H63.342V65.93Z" transform="translate(-52.017 -54.128)" fill="#474746"/>
</svg>
