<svg xmlns="http://www.w3.org/2000/svg" width="20.071" height="17.719" viewBox="0 0 20.071 17.719">
  <path id="Path_327" data-name="Path 327" d="M14.74,30a4.752,4.752,0,0,0-2.968,1.026,6.76,6.76,0,0,0-1.736,2.088A6.76,6.76,0,0,0,8.3,31.026,4.752,4.752,0,0,0,5.331,30C2.292,30,0,32.486,0,35.783c0,3.562,2.859,6,7.188,9.687.735.626,1.568,1.337,2.434,2.094a.627.627,0,0,0,.826,0c.866-.757,1.7-1.467,2.435-2.094,4.328-3.689,7.188-6.125,7.188-9.687C20.071,32.486,17.779,30,14.74,30Z" transform="translate(0 -30)" fill="#474746"/>
</svg>
