<svg xmlns="http://www.w3.org/2000/svg" width="20.071" height="20.071" viewBox="0 0 20.071 20.071">
  <path id="wedding-dinner" d="M10.286.25A10.036,10.036,0,1,0,20.321,10.286,10.036,10.036,0,0,0,10.286.25ZM8.033,10.411a3.026,3.026,0,0,0,2.048-2.993V4.961a.614.614,0,0,0-1.229,0V7.418a1.9,1.9,0,0,1-.819,1.658V4.961a.614.614,0,1,0-1.229,0V9.077a1.9,1.9,0,0,1-.819-1.658V4.961a.614.614,0,1,0-1.229,0V7.418A3.026,3.026,0,0,0,6.8,10.411V16.43a.614.614,0,1,0,1.229,0Zm7.2-1.324a2.257,2.257,0,0,1-1.055.882V16.43a.614.614,0,1,1-1.229,0V9.969a2.257,2.257,0,0,1-1.055-.882,3.778,3.778,0,0,1-.583-2.079,3.778,3.778,0,0,1,.583-2.079,2.04,2.04,0,0,1,1.67-.993,2.04,2.04,0,0,1,1.67.993,3.778,3.778,0,0,1,.583,2.079A3.778,3.778,0,0,1,15.232,9.087Z" transform="translate(-0.25 -0.25)" fill="#474746" fill-rule="evenodd"/>
</svg>
